<svg width="19" height="19" viewBox="0 0 19 19" fill="none" xmlns="http://www.w3.org/2000/svg">
<path d="M9.16663 15.7344C10.8333 15.7344 12.25 15.1511 13.4166 13.9844C14.5833 12.8178 15.1666 11.4011 15.1666 9.73444C15.1666 8.06777 14.5833 6.6511 13.4166 5.48444C12.25 4.31777 10.8333 3.73444 9.16663 3.73444C7.49996 3.73444 6.08329 4.31777 4.91663 5.48444C3.74996 6.6511 3.16663 8.06777 3.16663 9.73444C3.16663 11.4011 3.74996 12.8178 4.91663 13.9844C6.08329 15.1511 7.49996 15.7344 9.16663 15.7344ZM9.16663 13.7344C8.06663 13.7344 7.12496 13.3428 6.34163 12.5594C5.55829 11.7761 5.16663 10.8344 5.16663 9.73444C5.16663 8.63444 5.55829 7.69277 6.34163 6.90944C7.12496 6.1261 8.06663 5.73444 9.16663 5.73444C10.2666 5.73444 11.2083 6.1261 11.9916 6.90944C12.775 7.69277 13.1666 8.63444 13.1666 9.73444C13.1666 10.8344 12.775 11.7761 11.9916 12.5594C11.2083 13.3428 10.2666 13.7344 9.16663 13.7344ZM8.46663 10.4344C8.64996 10.6178 8.88329 10.7094 9.16663 10.7094C9.44996 10.7094 9.68329 10.6178 9.86663 10.4344L11.2666 9.03444C11.45 8.8511 11.5416 8.61777 11.5416 8.33444C11.5416 8.0511 11.45 7.81777 11.2666 7.63444C11.0833 7.4511 10.85 7.35944 10.5666 7.35944C10.2833 7.35944 10.05 7.4511 9.86663 7.63444L8.46663 9.03444C8.28329 9.21777 8.19163 9.4511 8.19163 9.73444C8.19163 10.0178 8.28329 10.2511 8.46663 10.4344ZM2.16663 18.7344C1.61663 18.7344 1.14579 18.5386 0.754126 18.1469C0.362459 17.7553 0.166626 17.2844 0.166626 16.7344V2.73444C0.166626 2.18444 0.362459 1.7136 0.754126 1.32194C1.14579 0.930269 1.61663 0.734436 2.16663 0.734436H16.1666C16.7166 0.734436 17.1875 0.930269 17.5791 1.32194C17.9708 1.7136 18.1666 2.18444 18.1666 2.73444V16.7344C18.1666 17.2844 17.9708 17.7553 17.5791 18.1469C17.1875 18.5386 16.7166 18.7344 16.1666 18.7344H2.16663ZM2.16663 16.7344H16.1666V2.73444H2.16663V16.7344Z" fill="#0F572E"/>
</svg>
