<svg width="21" height="20" viewBox="0 0 21 20" fill="none" xmlns="http://www.w3.org/2000/svg">
<path d="M18.5176 5.61003H14.5878V2.66267C14.5878 1.57902 13.7065 0.697754 12.6229 0.697754H8.69305C7.6094 0.697754 6.72814 1.57902 6.72814 2.66267V7.57495H2.79832C1.71467 7.57495 0.833405 8.45621 0.833405 9.53986V18.382C0.833405 18.6425 0.936913 18.8924 1.12116 19.0767C1.30541 19.2609 1.5553 19.3644 1.81586 19.3644H19.5001C19.7606 19.3644 20.0105 19.2609 20.1948 19.0767C20.379 18.8924 20.4825 18.6425 20.4825 18.382V7.57495C20.4825 6.4913 19.6013 5.61003 18.5176 5.61003ZM2.79832 9.53986H6.72814V17.3995H2.79832V9.53986ZM8.69305 2.66267H12.6229V17.3995H8.69305V2.66267ZM18.5176 17.3995H14.5878V7.57495H18.5176V17.3995Z" fill="#2D543E"/>
</svg>
