<svg width="21" height="21" viewBox="0 0 21 21" fill="none" xmlns="http://www.w3.org/2000/svg">
<path d="M16.1666 11.9844L18.1666 13.9844V18.7344C18.1666 19.2844 17.9708 19.7553 17.5791 20.1469C17.1875 20.5386 16.7166 20.7344 16.1666 20.7344H2.16663C1.61663 20.7344 1.14579 20.5386 0.754126 20.1469C0.362459 19.7553 0.166626 19.2844 0.166626 18.7344V4.73444C0.166626 4.18444 0.362459 3.7136 0.754126 3.32194C1.14579 2.93027 1.61663 2.73444 2.16663 2.73444H7.66663C7.53329 3.03444 7.43329 3.35527 7.36663 3.69694C7.29996 4.0386 7.24996 4.38444 7.21663 4.73444H2.16663V18.7344H16.1666V11.9844ZM17.4666 7.63444L20.6666 10.8344L19.2666 12.2344L16.0666 9.03444C15.7166 9.23444 15.3416 9.4011 14.9416 9.53444C14.5416 9.66777 14.1166 9.73444 13.6666 9.73444C12.4166 9.73444 11.3541 9.29694 10.4791 8.42194C9.60413 7.54694 9.16663 6.48444 9.16663 5.23444C9.16663 3.98444 9.60413 2.92194 10.4791 2.04694C11.3541 1.17194 12.4166 0.734436 13.6666 0.734436C14.9166 0.734436 15.9791 1.17194 16.8541 2.04694C17.7291 2.92194 18.1666 3.98444 18.1666 5.23444C18.1666 5.68444 18.1 6.10944 17.9666 6.50944C17.8333 6.90944 17.6666 7.28444 17.4666 7.63444ZM13.6666 7.73444C14.3666 7.73444 14.9583 7.49277 15.4416 7.00944C15.925 6.5261 16.1666 5.93444 16.1666 5.23444C16.1666 4.53444 15.925 3.94277 15.4416 3.45944C14.9583 2.9761 14.3666 2.73444 13.6666 2.73444C12.9666 2.73444 12.375 2.9761 11.8916 3.45944C11.4083 3.94277 11.1666 4.53444 11.1666 5.23444C11.1666 5.93444 11.4083 6.5261 11.8916 7.00944C12.375 7.49277 12.9666 7.73444 13.6666 7.73444ZM2.16663 18.7344V4.73444V11.7344V11.4344V18.7344Z" fill="#0F572E"/>
</svg>
