<svg width="18" height="18" viewBox="0 0 18 18" fill="none" xmlns="http://www.w3.org/2000/svg">
<path d="M16.7814 12.6383V7.02734H1.55167V15.8446C1.55167 16.0571 1.63612 16.261 1.78644 16.4114C1.93676 16.5617 2.14064 16.6461 2.35323 16.6461H9.16653" stroke="#2D543E" stroke-width="1.60313" stroke-linecap="round" stroke-linejoin="round"/>
<path d="M1.55167 3.42022C1.55167 3.20763 1.63612 3.00375 1.78644 2.85343C1.93676 2.7031 2.14064 2.61865 2.35323 2.61865H15.9798C16.1924 2.61865 16.3963 2.7031 16.5466 2.85343C16.697 3.00375 16.7814 3.20763 16.7814 3.42022V7.02726H1.55167V3.42022Z" stroke="#2D543E" stroke-width="1.60313" stroke-linejoin="round"/>
<path d="M5.96027 1.4165V4.62276M12.3728 1.4165V4.62276" stroke="#2D543E" stroke-width="1.60313" stroke-linecap="round"/>
<path d="M11.5712 15.0431C13.1206 15.0431 14.3767 13.787 14.3767 12.2376C14.3767 10.6882 13.1206 9.43213 11.5712 9.43213C10.0218 9.43213 8.76575 10.6882 8.76575 12.2376C8.76575 13.787 10.0218 15.0431 11.5712 15.0431Z" stroke="#2D543E" stroke-width="1.60313"/>
<path d="M13.9759 14.2412L16.3806 16.2451" stroke="#2D543E" stroke-width="1.60313" stroke-linecap="round" stroke-linejoin="round"/>
</svg>
