<svg width="16" height="20" viewBox="0 0 16 20" fill="none" xmlns="http://www.w3.org/2000/svg">
<path d="M15.0095 6.84469C14.9652 6.74339 14.9033 6.65079 14.8265 6.57122L9.22652 0.971221C9.14696 0.894484 9.05435 0.832538 8.95306 0.788287C8.92506 0.77522 8.89519 0.767754 8.86532 0.757487C8.78723 0.730912 8.70593 0.714903 8.62359 0.709887C8.60399 0.708021 8.58626 0.697754 8.56666 0.697754H2.03332C1.00386 0.697754 0.166656 1.53495 0.166656 2.56442V17.4978C0.166656 18.5272 1.00386 19.3644 2.03332 19.3644H13.2333C14.2628 19.3644 15.1 18.5272 15.1 17.4978V7.23109C15.1 7.21149 15.0897 7.19375 15.0879 7.17322C15.0833 7.09082 15.0673 7.00946 15.0403 6.93149C15.0309 6.90162 15.0225 6.87269 15.0095 6.84469ZM11.9136 6.29775H9.49999V3.88415L11.9136 6.29775ZM2.03332 17.4978V2.56442H7.63332V7.23109C7.63332 7.47862 7.73166 7.71602 7.90669 7.89105C8.08172 8.06609 8.31912 8.16442 8.56666 8.16442H13.2333L13.2352 17.4978H2.03332Z" fill="#2D543E"/>
<path d="M3.89999 10.0311H11.3667V11.8978H3.89999V10.0311ZM3.89999 13.7644H11.3667V15.6311H3.89999V13.7644ZM3.89999 6.29775H5.76666V8.16442H3.89999V6.29775Z" fill="#2D543E"/>
</svg>
