<svg width="17" height="17" viewBox="0 0 17 17" fill="none" xmlns="http://www.w3.org/2000/svg">
<path d="M0.448151 16.3706V14.3706H3.19815L2.79815 14.0206C1.93148 13.2539 1.32315 12.3789 0.973151 11.3956C0.623151 10.4123 0.448151 9.42061 0.448151 8.42061C0.448151 6.57061 1.00232 4.92477 2.11065 3.48311C3.21898 2.04144 4.66482 1.08727 6.44815 0.620605V2.72061C5.24815 3.15394 4.28148 3.89144 3.54815 4.93311C2.81482 5.97477 2.44815 7.13727 2.44815 8.42061C2.44815 9.17061 2.58982 9.89977 2.87315 10.6081C3.15648 11.3164 3.59815 11.9706 4.19815 12.5706L4.44815 12.8206V10.3706H6.44815V16.3706H0.448151ZM10.4482 16.1206V14.0206C11.6482 13.5873 12.6148 12.8498 13.3482 11.8081C14.0815 10.7664 14.4482 9.60394 14.4482 8.32061C14.4482 7.57061 14.3065 6.84144 14.0232 6.13311C13.7398 5.42477 13.2982 4.77061 12.6982 4.17061L12.4482 3.92061V6.37061H10.4482V0.370605H16.4482V2.37061H13.6982L14.0982 2.72061C14.9148 3.53727 15.5107 4.42477 15.8857 5.38311C16.2607 6.34144 16.4482 7.32061 16.4482 8.32061C16.4482 10.1706 15.894 11.8164 14.7857 13.2581C13.6773 14.6998 12.2315 15.6539 10.4482 16.1206Z" fill="#2D543E"/>
</svg>
