<svg width="22" height="20" viewBox="0 0 22 20" fill="none" xmlns="http://www.w3.org/2000/svg">
<path d="M16.696 9.43665C17.3714 8.2856 17.6631 6.94951 17.5288 5.6217C17.3303 3.64325 16.2257 1.89436 14.4203 0.697754L13.1949 2.54534C14.4358 3.36822 15.191 4.54043 15.3219 5.8435C15.3822 6.44912 15.3069 7.06057 15.1012 7.6334C14.8956 8.20622 14.5648 8.72601 14.1331 9.15496L12.8111 10.4769L14.6055 11.0037C19.2988 12.3788 19.3531 17.0987 19.3531 17.1464H21.5711C21.5711 15.1624 20.5109 11.2853 16.696 9.43665Z" fill="#2D543E"/>
<path d="M8.81763 10.4924C11.2641 10.4924 13.2536 8.50291 13.2536 6.05646C13.2536 3.61001 11.2641 1.62047 8.81763 1.62047C6.37118 1.62047 4.38164 3.61001 4.38164 6.05646C4.38164 8.50291 6.37118 10.4924 8.81763 10.4924ZM8.81763 3.83847C10.0409 3.83847 11.0356 4.83324 11.0356 6.05646C11.0356 7.27968 10.0409 8.27445 8.81763 8.27445C7.5944 8.27445 6.59963 7.27968 6.59963 6.05646C6.59963 4.83324 7.5944 3.83847 8.81763 3.83847ZM10.4811 11.6014H7.15413C3.48446 11.6014 0.500153 14.5858 0.500153 18.2554V19.3644H2.71815V18.2554C2.71815 15.809 4.70769 13.8194 7.15413 13.8194H10.4811C12.9276 13.8194 14.9171 15.809 14.9171 18.2554V19.3644H17.1351V18.2554C17.1351 14.5858 14.1508 11.6014 10.4811 11.6014Z" fill="#2D543E"/>
</svg>
