<svg width="17" height="21" viewBox="0 0 17 21" fill="none" xmlns="http://www.w3.org/2000/svg">
<path d="M8.16666 11.0312C7.18332 11.0312 6.35416 10.6938 5.67916 10.0188C5.00416 9.34375 4.66666 8.51458 4.66666 7.53125C4.66666 6.54792 5.00416 5.71875 5.67916 5.04375C6.35416 4.36875 7.18332 4.03125 8.16666 4.03125C9.14999 4.03125 9.97916 4.36875 10.6542 5.04375C11.3292 5.71875 11.6667 6.54792 11.6667 7.53125C11.6667 8.51458 11.3292 9.34375 10.6542 10.0188C9.97916 10.6938 9.14999 11.0312 8.16666 11.0312ZM8.16666 9.03125C8.59999 9.03125 8.95832 8.88958 9.24166 8.60625C9.52499 8.32292 9.66666 7.96458 9.66666 7.53125C9.66666 7.09792 9.52499 6.73958 9.24166 6.45625C8.95832 6.17292 8.59999 6.03125 8.16666 6.03125C7.73332 6.03125 7.37499 6.17292 7.09166 6.45625C6.80832 6.73958 6.66666 7.09792 6.66666 7.53125C6.66666 7.96458 6.80832 8.32292 7.09166 8.60625C7.37499 8.88958 7.73332 9.03125 8.16666 9.03125ZM8.16666 20.0312C5.84999 19.4479 3.93749 18.1188 2.42916 16.0438C0.920823 13.9688 0.166656 11.6646 0.166656 9.13125V3.03125L8.16666 0.03125L16.1667 3.03125V9.13125C16.1667 11.6646 15.4125 13.9688 13.9042 16.0438C12.3958 18.1188 10.4833 19.4479 8.16666 20.0312ZM8.16666 2.15625L2.16666 4.40625V9.13125C2.16666 10.0313 2.29166 10.9063 2.54166 11.7563C2.79166 12.6063 3.13332 13.4062 3.56666 14.1562C4.26666 13.8063 4.99999 13.5313 5.76666 13.3313C6.53332 13.1313 7.33332 13.0312 8.16666 13.0312C8.99999 13.0312 9.79999 13.1313 10.5667 13.3313C11.3333 13.5313 12.0667 13.8063 12.7667 14.1562C13.2 13.4062 13.5417 12.6063 13.7917 11.7563C14.0417 10.9063 14.1667 10.0313 14.1667 9.13125V4.40625L8.16666 2.15625ZM8.16666 15.0312C7.56666 15.0312 6.98332 15.0979 6.41666 15.2312C5.84999 15.3646 5.30832 15.5479 4.79166 15.7812C5.27499 16.2812 5.79999 16.7146 6.36666 17.0813C6.93332 17.4479 7.53332 17.7312 8.16666 17.9312C8.79999 17.7312 9.39999 17.4479 9.96666 17.0813C10.5333 16.7146 11.0583 16.2812 11.5417 15.7812C11.025 15.5479 10.4833 15.3646 9.91666 15.2312C9.34999 15.0979 8.76666 15.0312 8.16666 15.0312Z" fill="#2D543E"/>
</svg>
