<svg width="17" height="20" viewBox="0 0 17 20" fill="none" xmlns="http://www.w3.org/2000/svg">
<path d="M15.1 2.56442H13.2333V0.697754H11.3667V2.56442H5.76666V0.697754H3.89999V2.56442H2.03332C1.00386 2.56442 0.166656 3.40162 0.166656 4.43109V17.4978C0.166656 18.5272 1.00386 19.3644 2.03332 19.3644H15.1C16.1295 19.3644 16.9667 18.5272 16.9667 17.4978V4.43109C16.9667 3.40162 16.1295 2.56442 15.1 2.56442ZM15.1019 17.4978H2.03332V6.29775H15.1L15.1019 17.4978Z" fill="#2D543E"/>
<path d="M7.63335 15.0842L12.9599 9.75765L11.6402 8.43791L7.63335 12.4447L5.49322 10.3046L4.17348 11.6243L7.63335 15.0842Z" fill="#2D543E"/>
</svg>
