<svg width="23" height="17" viewBox="0 0 23 17" fill="none" xmlns="http://www.w3.org/2000/svg">
<path d="M0.166626 16.7344V13.9344C0.166626 13.3678 0.312459 12.8469 0.604126 12.3719C0.895793 11.8969 1.28329 11.5344 1.76663 11.2844C2.79996 10.7678 3.84996 10.3803 4.91663 10.1219C5.98329 9.8636 7.06663 9.73444 8.16663 9.73444C9.26663 9.73444 10.35 9.8636 11.4166 10.1219C12.4833 10.3803 13.5333 10.7678 14.5666 11.2844C15.05 11.5344 15.4375 11.8969 15.7291 12.3719C16.0208 12.8469 16.1666 13.3678 16.1666 13.9344V16.7344H0.166626ZM18.1666 16.7344V13.7344C18.1666 13.0011 17.9625 12.2969 17.5541 11.6219C17.1458 10.9469 16.5666 10.3678 15.8166 9.88444C16.6666 9.98444 17.4666 10.1553 18.2166 10.3969C18.9666 10.6386 19.6666 10.9344 20.3166 11.2844C20.9166 11.6178 21.375 11.9886 21.6916 12.3969C22.0083 12.8053 22.1666 13.2511 22.1666 13.7344V16.7344H18.1666ZM8.16663 8.73444C7.06663 8.73444 6.12496 8.34277 5.34163 7.55944C4.55829 6.7761 4.16663 5.83444 4.16663 4.73444C4.16663 3.63444 4.55829 2.69277 5.34163 1.90944C6.12496 1.1261 7.06663 0.734436 8.16663 0.734436C9.26663 0.734436 10.2083 1.1261 10.9916 1.90944C11.775 2.69277 12.1666 3.63444 12.1666 4.73444C12.1666 5.83444 11.775 6.7761 10.9916 7.55944C10.2083 8.34277 9.26663 8.73444 8.16663 8.73444ZM18.1666 4.73444C18.1666 5.83444 17.775 6.7761 16.9916 7.55944C16.2083 8.34277 15.2666 8.73444 14.1666 8.73444C13.9833 8.73444 13.75 8.7136 13.4666 8.67194C13.1833 8.63027 12.95 8.58444 12.7666 8.53444C13.2166 8.0011 13.5625 7.40944 13.8041 6.75944C14.0458 6.10944 14.1666 5.43444 14.1666 4.73444C14.1666 4.03444 14.0458 3.35944 13.8041 2.70944C13.5625 2.05944 13.2166 1.46777 12.7666 0.934436C13 0.851103 13.2333 0.796936 13.4666 0.771936C13.7 0.746936 13.9333 0.734436 14.1666 0.734436C15.2666 0.734436 16.2083 1.1261 16.9916 1.90944C17.775 2.69277 18.1666 3.63444 18.1666 4.73444ZM2.16663 14.7344H14.1666V13.9344C14.1666 13.7511 14.1208 13.5844 14.0291 13.4344C13.9375 13.2844 13.8166 13.1678 13.6666 13.0844C12.7666 12.6344 11.8583 12.2969 10.9416 12.0719C10.025 11.8469 9.09996 11.7344 8.16663 11.7344C7.23329 11.7344 6.30829 11.8469 5.39163 12.0719C4.47496 12.2969 3.56663 12.6344 2.66663 13.0844C2.51663 13.1678 2.39579 13.2844 2.30413 13.4344C2.21246 13.5844 2.16663 13.7511 2.16663 13.9344V14.7344ZM8.16663 6.73444C8.71663 6.73444 9.18746 6.5386 9.57913 6.14694C9.97079 5.75527 10.1666 5.28444 10.1666 4.73444C10.1666 4.18444 9.97079 3.7136 9.57913 3.32194C9.18746 2.93027 8.71663 2.73444 8.16663 2.73444C7.61663 2.73444 7.14579 2.93027 6.75413 3.32194C6.36246 3.7136 6.16663 4.18444 6.16663 4.73444C6.16663 5.28444 6.36246 5.75527 6.75413 6.14694C7.14579 6.5386 7.61663 6.73444 8.16663 6.73444Z" fill="#0F572E"/>
</svg>
