<svg width="15" height="15" viewBox="0 0 15 15" fill="none" xmlns="http://www.w3.org/2000/svg">
<path fill-rule="evenodd" clip-rule="evenodd" d="M2.95444 1.27554C3.95515 0.606891 5.13166 0.25 6.3352 0.25H6.33523C7.94909 0.250103 9.49681 0.891249 10.638 2.03242C11.7791 3.17358 12.4203 4.72131 12.4204 6.33516V6.3352C12.4204 7.53873 12.0635 8.71524 11.3949 9.71595C10.7262 10.7167 9.77583 11.4966 8.6639 11.9572C7.55198 12.4178 6.32845 12.5383 5.14804 12.3035C3.96762 12.0687 2.88335 11.4891 2.03232 10.6381C1.18129 9.78705 0.601727 8.70277 0.366928 7.52236C0.132129 6.34195 0.252637 5.11842 0.713211 4.00649C1.17378 2.89457 1.95374 1.94419 2.95444 1.27554ZM6.33516 1.375C5.35414 1.37501 4.39515 1.66592 3.57946 2.21094C2.76376 2.75598 2.128 3.53065 1.75258 4.43701C1.37715 5.34337 1.27892 6.3407 1.47031 7.30288C1.6617 8.26507 2.13411 9.14889 2.82781 9.84258C3.52151 10.5363 4.40533 11.0087 5.36751 11.2001C6.3297 11.3915 7.32703 11.2932 8.23338 10.9178C9.13974 10.5424 9.91442 9.90663 10.4594 9.09093C11.0045 8.27524 11.2954 7.31625 11.2954 6.33523M6.3352 1.375C7.65069 1.37509 8.91228 1.89771 9.84248 2.82791C10.7727 3.75811 11.2953 5.0197 11.2954 6.3352" fill="#656565"/>
<path fill-rule="evenodd" clip-rule="evenodd" d="M10.0578 10.0578C10.2774 9.83809 10.6336 9.83809 10.8533 10.0578L14.7102 13.9148C14.9299 14.1344 14.9299 14.4906 14.7102 14.7102C14.4906 14.9299 14.1344 14.9299 13.9148 14.7102L10.0578 10.8533C9.83809 10.6336 9.83809 10.2774 10.0578 10.0578Z" fill="#656565"/>
</svg>
